<svg viewBox="0 0 24 24" fill="none" xmlns="http://www.w3.org/2000/svg">
<path d="M12 8.25006C11.2583 8.25006 10.5333 8.47 9.91662 8.88205C9.29993 9.29411 8.81929 9.87978 8.53546 10.565C8.25163 11.2502 8.17737 12.0042 8.32206 12.7317C8.46676 13.4591 8.82391 14.1273 9.34836 14.6517C9.8728 15.1762 10.541 15.5333 11.2684 15.678C11.9958 15.8227 12.7498 15.7484 13.4351 15.4646C14.1203 15.1808 14.706 14.7001 15.118 14.0834C15.5301 13.4668 15.75 12.7417 15.75 12.0001C15.747 11.0064 15.351 10.0543 14.6484 9.35169C13.9458 8.64907 12.9937 8.25303 12 8.25006ZM20.0963 12.0001C20.0943 12.3505 20.0686 12.7003 20.0194 13.0472L22.3017 14.8341C22.4011 14.9162 22.4681 15.031 22.4907 15.1579C22.5133 15.2848 22.49 15.4156 22.425 15.5269L20.2659 19.2544C20.2003 19.3648 20.0979 19.4484 19.9766 19.4907C19.8554 19.533 19.7231 19.5311 19.6031 19.4855L16.9195 18.4074C16.3607 18.8377 15.7492 19.1948 15.0998 19.4701L14.6986 22.3191C14.6761 22.4467 14.6101 22.5626 14.5117 22.6469C14.4132 22.7312 14.2886 22.7787 14.1591 22.7813H9.84094C9.71375 22.7788 9.59115 22.7333 9.49316 22.6522C9.39517 22.571 9.32757 22.4591 9.30141 22.3346L8.90016 19.4855C8.24901 19.2135 7.63705 18.8558 7.08047 18.4219L4.39688 19.5001C4.27692 19.5457 4.1447 19.5476 4.02348 19.5054C3.90225 19.4633 3.79977 19.3797 3.73407 19.2694L1.57501 15.5424C1.51002 15.4311 1.48673 15.3003 1.50932 15.1733C1.5319 15.0464 1.59888 14.9317 1.69829 14.8496L3.98063 13.0627C3.93195 12.7105 3.90627 12.3556 3.90376 12.0001C3.90571 11.6497 3.93139 11.2998 3.98063 10.9529L1.69829 9.166C1.59888 9.08392 1.5319 8.96917 1.50932 8.84225C1.48673 8.71533 1.51002 8.58452 1.57501 8.47319L3.73407 4.74569C3.7997 4.63534 3.90215 4.55167 4.02338 4.5094C4.14461 4.46714 4.27687 4.46897 4.39688 4.51459L7.08047 5.59272C7.63928 5.16241 8.2508 4.8053 8.90016 4.53006L9.30141 1.681C9.32387 1.55338 9.38995 1.43752 9.48836 1.35322C9.58676 1.26892 9.71139 1.22141 9.84094 1.21881H14.1591C14.2863 1.22129 14.4089 1.26681 14.5069 1.34794C14.6048 1.42907 14.6724 1.54103 14.6986 1.66553L15.0998 4.51459C15.7518 4.78645 16.3646 5.14414 16.9219 5.57819L19.6031 4.50006C19.7231 4.4544 19.8553 4.45249 19.9765 4.49467C20.0978 4.53685 20.2002 4.62042 20.2659 4.73069L22.425 8.45819C22.49 8.56952 22.5133 8.70033 22.4907 8.82725C22.4681 8.95417 22.4011 9.06892 22.3017 9.151L20.0194 10.9379C20.068 11.2899 20.0937 11.6447 20.0963 12.0001Z"/>
</svg>
