<svg viewBox="0 0 24 24" fill="none" xmlns="http://www.w3.org/2000/svg">
<path d="M12 21.75C6.62391 21.75 2.25 17.3686 2.25 11.9836C2.25 9.05625 3.52734 6.31172 5.75438 4.45781C5.85836 4.37073 5.9785 4.30501 6.10792 4.26442C6.23734 4.22383 6.37349 4.20918 6.50858 4.22129C6.64367 4.2334 6.77505 4.27204 6.89519 4.33499C7.01532 4.39795 7.12186 4.48399 7.2087 4.58818C7.29553 4.69237 7.36096 4.81267 7.40124 4.94219C7.44152 5.0717 7.45585 5.20789 7.44341 5.34295C7.43098 5.47801 7.39203 5.6093 7.32878 5.72928C7.26554 5.84927 7.17924 5.9556 7.07484 6.04219C5.31937 7.50469 4.3125 9.67031 4.3125 11.9836C4.3125 16.2314 7.76109 19.6875 12 19.6875C16.2389 19.6875 19.6875 16.2314 19.6875 11.9836C19.6874 10.8484 19.4358 9.72723 18.9509 8.70076C18.466 7.67429 17.7598 6.76796 16.883 6.04687C16.7744 5.96208 16.6838 5.85639 16.6168 5.73603C16.5497 5.61567 16.5074 5.48309 16.4924 5.34612C16.4775 5.20914 16.4901 5.07056 16.5296 4.93855C16.569 4.80654 16.6346 4.68378 16.7223 4.57752C16.81 4.47125 16.9181 4.38365 17.0403 4.31987C17.1624 4.2561 17.2961 4.21745 17.4334 4.2062C17.5707 4.19495 17.7089 4.21134 17.8398 4.2544C17.9707 4.29745 18.0916 4.3663 18.1955 4.45687C19.307 5.3711 20.2023 6.5202 20.8169 7.82159C21.4314 9.12299 21.7501 10.5444 21.75 11.9836C21.75 17.3686 17.3761 21.75 12 21.75Z" />
<path d="M12 12.75C11.7265 12.75 11.4642 12.6414 11.2708 12.448C11.0774 12.2546 10.9688 11.9923 10.9688 11.7188V3.28125C10.9688 3.00775 11.0774 2.74544 11.2708 2.55205C11.4642 2.35865 11.7265 2.25 12 2.25C12.2735 2.25 12.5358 2.35865 12.7292 2.55205C12.9226 2.74544 13.0312 3.00775 13.0312 3.28125V11.7188C13.0312 11.9923 12.9226 12.2546 12.7292 12.448C12.5358 12.6414 12.2735 12.75 12 12.75Z" />
</svg>
