<svg viewBox="0 0 24 24" fill="none" xmlns="http://www.w3.org/2000/svg">
<path d="M3.17158 7.6284C5.26798 5.8284 6.92398 4.4052 11.418 6.9444C13.5768 8.1636 15.318 8.6244 16.7664 8.622C19.3044 8.622 20.9496 7.2108 22.3716 5.9904C22.6157 5.77807 22.7674 5.47903 22.7948 5.15667C22.8221 4.83432 22.7228 4.51399 22.518 4.2636C22.4181 4.14073 22.2945 4.03915 22.1546 3.96486C22.0148 3.89057 21.8614 3.84509 21.7037 3.83111C21.5459 3.81712 21.387 3.83492 21.2362 3.88344C21.0855 3.93196 20.946 4.01022 20.826 4.1136C18.7308 5.916 17.0736 7.3392 12.5796 4.7976C6.64198 1.446 3.86038 3.834 1.62598 5.754C1.38208 5.9665 1.23052 6.26562 1.20341 6.58797C1.17631 6.91032 1.27579 7.23055 1.48078 7.4808C1.58077 7.60346 1.70435 7.70481 1.8442 7.77887C1.98405 7.85292 2.13734 7.89817 2.29499 7.91193C2.45264 7.92569 2.61145 7.90769 2.76202 7.85899C2.91258 7.81029 3.05185 7.73188 3.17158 7.6284ZM20.826 10.242C18.7308 12.042 17.0736 13.4676 12.5796 10.926C6.64198 7.572 3.86038 9.9612 1.62598 11.88C1.38208 12.0925 1.23052 12.3916 1.20341 12.714C1.17631 13.0363 1.27579 13.3566 1.48078 13.6068C1.5806 13.7296 1.70404 13.8312 1.84381 13.9055C1.98357 13.9797 2.13682 14.0252 2.29448 14.0392C2.45213 14.0532 2.61099 14.0354 2.76165 13.9869C2.91231 13.9384 3.0517 13.8601 3.17158 13.7568C5.26798 11.9556 6.92398 10.5324 11.418 13.0704C13.5768 14.292 15.318 14.7504 16.7664 14.7504C19.3044 14.7504 20.9496 13.3392 22.3716 12.1164C22.6158 11.9044 22.7678 11.6056 22.7951 11.2833C22.8225 10.9611 22.723 10.6409 22.518 10.3908C22.4181 10.2679 22.2945 10.1663 22.1546 10.092C22.0147 10.0177 21.8613 9.9723 21.7035 9.95842C21.5457 9.94454 21.3867 9.96249 21.236 10.0112C21.0852 10.0599 20.9458 10.1384 20.826 10.242ZM20.826 16.3692C18.7308 18.1716 17.0736 19.5948 12.5796 17.0556C6.64198 13.7016 3.86038 16.0896 1.62598 18.0096C1.38208 18.2221 1.23052 18.5212 1.20341 18.8436C1.17631 19.1659 1.27579 19.4862 1.48078 19.7364C1.58067 19.8592 1.70421 19.9607 1.84406 20.0348C1.98392 20.109 2.13725 20.1543 2.29494 20.1681C2.45264 20.1818 2.6115 20.1638 2.76208 20.115C2.91267 20.0662 3.05193 19.9876 3.17158 19.884C5.26798 18.084 6.92398 16.662 11.418 19.2C13.5768 20.4192 15.318 20.88 16.7664 20.88C19.3044 20.88 20.9496 19.4664 22.3716 18.246C22.6157 18.0337 22.7674 17.7346 22.7948 17.4123C22.8221 17.0899 22.7228 16.7696 22.518 16.5192C22.418 16.3965 22.2944 16.295 22.1545 16.2208C22.0146 16.1466 21.8613 16.1012 21.7036 16.0872C21.5459 16.0732 21.387 16.091 21.2363 16.1394C21.0855 16.1879 20.946 16.266 20.826 16.3692Z" fill="#212227"/>
</svg>
